<svg width="54" height="54" viewBox="0 0 54 54" fill="none" xmlns="http://www.w3.org/2000/svg">
<g clip-path="url(#clip0_2226_34302)">
<path opacity="0.2" d="M33.8998 29.5861C33.6989 29.4636 33.4748 29.3839 33.2417 29.352L28.4281 28.7023C28.0666 28.6533 27.6989 28.7229 27.3802 28.9005C27.0615 29.078 26.809 29.3541 26.6604 29.6873L23.7706 36.1716C23.6363 36.4733 23.5935 36.8078 23.6475 37.1337C23.7015 37.4595 23.8499 37.7623 24.0743 38.0046L28.2382 42.293C28.4187 42.487 28.551 42.7209 28.6243 42.9756C28.6976 43.2303 28.7099 43.4987 28.6601 43.759L27.9914 47.2268C31.5188 47.0552 34.9399 45.9641 37.9153 44.0618C40.8906 42.1595 43.3168 39.5121 44.9529 36.3825L33.8998 29.5861Z" fill="#00C773"/>
<path d="M27 47.25C38.1838 47.25 47.25 38.1838 47.25 27C47.25 15.8162 38.1838 6.75 27 6.75C15.8162 6.75 6.75 15.8162 6.75 27C6.75 38.1838 15.8162 47.25 27 47.25Z" stroke="#00C773" stroke-width="3" stroke-linecap="round" stroke-linejoin="round"/>
<path d="M16.006 26.0001L18.8157 21.0937C18.964 20.8368 19.1774 20.6236 19.4344 20.4754C19.6914 20.3273 19.9829 20.2495 20.2796 20.25H23.8043C24.0893 20.2504 24.3697 20.1778 24.6186 20.039L27.211 18.6131C27.325 18.5517 27.4307 18.4759 27.5253 18.3874L33.2037 13.2553C33.4862 12.9983 33.6733 12.6531 33.7342 12.2761C33.7951 11.8991 33.7263 11.5125 33.5391 11.1796L31.3243 7.21191" stroke="#00C773" stroke-width="2" stroke-linecap="round" stroke-linejoin="round"/>
<path d="M14.2973 11.2281L11.8125 17.1028C11.6446 17.5005 11.6356 17.9473 11.7872 18.3515L14.2129 24.821C14.3126 25.0853 14.4771 25.3204 14.6912 25.5046C14.9053 25.6889 15.1623 25.8165 15.4385 25.8756L19.9589 26.8481C20.2096 26.9018 20.4448 27.012 20.6465 27.1703C20.8483 27.3286 21.0113 27.5307 21.1233 27.7614L21.9248 29.4215C22.0631 29.7067 22.2789 29.9472 22.5475 30.1154C22.8161 30.2837 23.1266 30.3729 23.4436 30.3728H26.3545" stroke="#00C773" stroke-width="3" stroke-linecap="round" stroke-linejoin="round"/>
<path opacity="0.2" d="M16.0059 26.0002L18.8156 21.0938C18.9639 20.8369 19.1773 20.6236 19.4343 20.4755C19.6914 20.3274 19.9829 20.2496 20.2795 20.25H23.8043C24.0892 20.2505 24.3696 20.1779 24.6185 20.0391L27.2109 18.6131C27.325 18.5518 27.4306 18.4759 27.5252 18.3874L33.2036 13.2553C33.4862 12.9984 33.6732 12.6532 33.7341 12.2761C33.795 11.8991 33.7263 11.5126 33.539 11.1797L31.3242 7.21198C29.9034 6.90421 28.4537 6.74934 27 6.75002C22.3777 6.74297 17.8932 8.32392 14.2973 11.2282L11.8125 17.1028C11.6446 17.5005 11.6356 17.9474 11.7872 18.3516L14.2129 24.821C14.3126 25.0854 14.4771 25.3204 14.6912 25.5047C14.9053 25.689 15.1623 25.8166 15.4385 25.8757L16.0059 26.0002Z" fill="#00C773"/>
<path d="M44.9487 36.3825L33.8998 29.5861C33.6989 29.4636 33.4748 29.3839 33.2417 29.352L28.4281 28.7023C28.0666 28.6533 27.6989 28.7229 27.3802 28.9005C27.0615 29.078 26.809 29.3541 26.6604 29.6873L23.7706 36.1716C23.6363 36.4733 23.5935 36.8078 23.6475 37.1337C23.7015 37.4595 23.8499 37.7623 24.0743 38.0046L28.2382 42.293C28.4187 42.487 28.551 42.7209 28.6243 42.9756C28.6976 43.2303 28.7099 43.4987 28.6601 43.759L27.9914 47.2268" stroke="#00C773" stroke-width="3" stroke-linecap="round" stroke-linejoin="round"/>
</g>
<defs>
<clipPath id="clip0_2226_34302">
<rect width="54" height="54" fill="white"/>
</clipPath>
</defs>
</svg>
