<svg width="54" height="54" viewBox="0 0 54 54" fill="none" xmlns="http://www.w3.org/2000/svg">
<g clip-path="url(#clip0_2226_35198)">
<path opacity="0.2" d="M27 47.25C38.1838 47.25 47.25 38.1838 47.25 27C47.25 15.8162 38.1838 6.75 27 6.75C15.8162 6.75 6.75 15.8162 6.75 27C6.75 38.1838 15.8162 47.25 27 47.25Z" fill="#732DB3"/>
<path d="M27 47.25C38.1838 47.25 47.25 38.1838 47.25 27C47.25 15.8162 38.1838 6.75 27 6.75C15.8162 6.75 6.75 15.8162 6.75 27C6.75 38.1838 15.8162 47.25 27 47.25Z" stroke="#732DB3" stroke-width="3" stroke-linecap="round" stroke-linejoin="round"/>
<path d="M19.4062 25.3125C20.8042 25.3125 21.9375 24.1792 21.9375 22.7812C21.9375 21.3833 20.8042 20.25 19.4062 20.25C18.0083 20.25 16.875 21.3833 16.875 22.7812C16.875 24.1792 18.0083 25.3125 19.4062 25.3125Z" fill="#732DB3"/>
<path d="M34.5938 25.3125C35.9917 25.3125 37.125 24.1792 37.125 22.7812C37.125 21.3833 35.9917 20.25 34.5938 20.25C33.1958 20.25 32.0625 21.3833 32.0625 22.7812C32.0625 24.1792 33.1958 25.3125 34.5938 25.3125Z" fill="#732DB3"/>
<path d="M35.4375 32.0625C33.6867 35.0895 30.7484 37.125 27 37.125C23.2516 37.125 20.3133 35.0895 18.5625 32.0625" stroke="#732DB3" stroke-width="3" stroke-linecap="round" stroke-linejoin="round"/>
</g>
<defs>
<clipPath id="clip0_2226_35198">
<rect width="54" height="54" fill="white"/>
</clipPath>
</defs>
</svg>
